# xmcd
#
# Track frame offsets:
#	150
#	43422
#	60095
#	76130
#	105382
#	117557
#	135990
#	156855
#	168430
#	208225
#	230065
#	245657
#
# Disc length: 3671 seconds
#
# Revision: 1
# Processed by: cddbd v1.5.1PL0 Copyright (c) Steve Scherf et al.
# Submitted via: CDex 1.50Beta5
#
DISCID=a00e550c
DTITLE=坂本弘道 - 零式
DYEAR=1900
DGENRE=Jazz
TTITLE0=真・月魚
TTITLE1=蒸気歩行
TTITLE2=薔薇の速度
TTITLE3=兆し・・・
TTITLE4=夢の蹟
TTITLE5=影踏み
TTITLE6=空蝉
TTITLE7=海馬は踊る
TTITLE8=嵐が丘・零式
TTITLE9=半分夏生まれた
TTITLE10=ドガ・改
TTITLE11=蝶と骨と虹と
EXTD=
EXTT0=
EXTT1=
EXTT2=
EXTT3=
EXTT4=
EXTT5=
EXTT6=
EXTT7=
EXTT8=
EXTT9=
EXTT10=
EXTT11=
PLAYORDER=
